<?xml version="1.0" standalone="no"?>
<!DOCTYPE svg PUBLIC "-//W3C//DTD SVG 20010904//EN"
 "http://www.w3.org/TR/2001/REC-SVG-20010904/DTD/svg10.dtd">
<svg version="1.0" xmlns="http://www.w3.org/2000/svg"
 width="512.000000pt" height="512.000000pt" viewBox="0 0 512.000000 512.000000"
 preserveAspectRatio="xMidYMid meet">
<metadata>
Created by potrace 1.14, written by Peter Selinger 2001-2017
</metadata>
<g transform="translate(0.000000,512.000000) scale(0.100000,-0.100000)"
fill="#000000" stroke="none">
<path d="M789 5056 c-2 -2 -22 -7 -44 -11 -309 -52 -566 -287 -657 -602 l-23
-78 0 -1800 c0 -2022 -6 -1848 76 -2024 103 -221 286 -376 534 -454 l70 -22
1780 -2 c1879 -3 1838 -3 1969 41 60 21 140 58 144 68 2 4 9 8 14 8 16 0 115
76 163 124 107 108 195 269 225 415 18 82 19 178 17 1871 -2 1302 -5 1793 -13
1815 -7 17 -18 50 -25 75 -59 197 -209 377 -399 478 -70 37 -148 68 -195 78
-11 2 -31 7 -45 11 -26 8 -3583 16 -3591 9z"/>
</g>
</svg>
